<svg preserveAspectRatio="none" overflow="visible" style="display: block;" width="16.3908" height="17.2089" viewBox="0 0 16.3908 17.2089" fill="none" xmlns="http://www.w3.org/2000/svg">
<g id="Group">
<g id="Vector" filter="url(#filter0_f_0_162)">
<path d="M1.87576 9.76424C1.8831 10.8665 2.19719 12.0038 2.67261 12.9219V12.9282C3.01613 13.5949 3.48562 14.1216 4.02036 14.6434L7.25006 13.465C6.63902 13.1546 6.54578 12.9644 6.10777 12.6173C5.66015 12.166 5.32654 11.6478 5.11878 11.0403H5.11041L5.11878 11.0339C4.9821 10.6327 4.96862 10.2068 4.96358 9.76424H1.87576Z" fill="url(#paint0_radial_0_162)"/>
</g>
<g id="Vector_2" filter="url(#filter1_f_0_162)">
<path d="M9.04507 2.74763C8.72585 3.8691 8.84791 4.95921 9.04507 5.59349C9.4137 5.59376 9.76881 5.6377 10.1055 5.72524C10.8775 5.92593 11.4234 6.32119 11.758 6.63383L13.8285 4.60624C12.6019 3.48161 11.1258 2.7494 9.04507 2.74763Z" fill="url(#paint1_radial_0_162)"/>
</g>
<g id="Vector_3" filter="url(#filter2_f_0_162)">
<path d="M9.03807 2.7388C7.47227 2.73876 6.02666 3.22662 4.84203 4.05112C4.40217 4.35726 3.99853 4.7109 3.63911 5.10415C3.54495 5.98751 4.34396 7.07324 5.92626 7.06425C6.69398 6.17122 7.82943 5.59343 9.09318 5.59343C9.09433 5.59343 9.09546 5.59352 9.09661 5.59353L9.045 2.739C9.04266 2.739 9.04041 2.7388 9.03807 2.7388Z" fill="url(#paint2_radial_0_162)"/>
</g>
<g id="Vector_4" filter="url(#filter3_f_0_162)">
<path d="M14.206 10.0839L12.8084 11.044C12.7471 11.4205 12.6093 11.7909 12.4076 12.1287C12.1766 12.5156 11.8909 12.8102 11.5982 13.0346C10.723 13.7052 9.70321 13.8433 8.9933 13.8439C8.25954 15.0936 8.1309 15.7196 9.04491 16.7282C10.1759 16.7274 11.1786 16.5232 12.063 16.1409C12.7023 15.8646 13.2687 15.5041 13.7816 15.0408C14.4592 14.4287 14.99 13.6715 15.3522 12.8004C15.7144 11.9293 15.9081 10.9443 15.9081 9.87627L14.206 10.0839Z" fill="url(#paint3_radial_0_162)"/>
</g>
<g id="Vector_5" filter="url(#filter4_f_0_162)">
<path d="M8.94184 8.33297V11.1956H15.666C15.7251 10.8036 15.9207 10.2962 15.9207 9.87625C15.9207 9.38545 15.8714 8.78597 15.7878 8.33297H8.94184Z" fill="#3086FF"/>
</g>
<g id="Vector_6" filter="url(#filter5_f_0_162)">
<path d="M3.67119 5.00311C3.25624 5.45711 2.90174 5.96528 2.62067 6.51485C2.13846 7.45475 1.87443 8.5974 1.87443 9.71729C1.87443 9.73308 1.87574 9.74852 1.87584 9.76427C2.0894 10.1737 4.82574 10.0953 4.96366 9.76427C4.96349 9.74882 4.96175 9.73376 4.96175 9.71828C4.96175 9.25895 5.03935 8.92039 5.18079 8.50512C5.35529 7.99289 5.62851 7.5212 5.97788 7.1148C6.05707 7.01369 6.26833 6.79632 6.32996 6.66594C6.35344 6.61628 6.28733 6.5884 6.28364 6.57092C6.2795 6.55137 6.19088 6.56709 6.17102 6.55253C6.10798 6.50629 5.98315 6.48214 5.90734 6.46068C5.74532 6.4148 5.4768 6.31363 5.32765 6.20876C4.85621 5.87725 4.12048 5.48127 3.67119 5.00311Z" fill="url(#paint4_radial_0_162)"/>
</g>
<g id="Vector_7" filter="url(#filter6_f_0_162)">
<path d="M5.3378 6.5729C6.43103 7.23512 6.74542 6.23864 7.47227 5.92681L6.2079 3.30485C5.74279 3.50033 5.30336 3.7432 4.89564 4.02697C4.28674 4.45077 3.74903 4.96791 3.30485 5.55644L5.3378 6.5729Z" fill="url(#paint5_radial_0_162)"/>
</g>
<g id="Vector_8" filter="url(#filter7_f_0_162)">
<path d="M5.78281 13.2625C4.3153 13.7923 4.08555 13.8113 3.95047 14.7207C4.20861 14.9726 4.48596 15.2056 4.78069 15.4169C5.57154 15.9838 7.09279 16.7388 9.03833 16.7388C9.04062 16.7388 9.0428 16.7386 9.04508 16.7386V13.7934C9.04361 13.7934 9.04192 13.7935 9.04045 13.7935C8.31191 13.7935 7.72974 13.6021 7.13282 13.2694C6.98565 13.1873 6.71864 13.4076 6.58291 13.3092C6.39571 13.1733 5.94518 13.4262 5.78281 13.2625Z" fill="url(#paint6_radial_0_162)"/>
</g>
<g id="Vector_9" opacity="0.5" filter="url(#filter8_f_0_162)">
<path d="M8.18552 13.7006V16.6876C8.45773 16.7195 8.74103 16.7388 9.03822 16.7388C9.33614 16.7388 9.62435 16.7235 9.90442 16.6954V13.7207C9.59057 13.7744 9.29497 13.7935 9.04033 13.7935C8.74707 13.7935 8.46186 13.7593 8.18552 13.7006Z" fill="url(#paint7_linear_0_162)"/>
</g>
</g>
<defs>
<filter id="filter0_f_0_162" x="1.40568" y="9.29416" width="6.31446" height="5.81934" filterUnits="userSpaceOnUse" color-interpolation-filters="sRGB">
<feFlood flood-opacity="0" result="BackgroundImageFix"/>
<feBlend mode="normal" in="SourceGraphic" in2="BackgroundImageFix" result="shape"/>
<feGaussianBlur stdDeviation="0.23504" result="effect1_foregroundBlur_0_162"/>
</filter>
<filter id="filter1_f_0_162" x="8.37872" y="2.27755" width="5.91987" height="4.82636" filterUnits="userSpaceOnUse" color-interpolation-filters="sRGB">
<feFlood flood-opacity="0" result="BackgroundImageFix"/>
<feBlend mode="normal" in="SourceGraphic" in2="BackgroundImageFix" result="shape"/>
<feGaussianBlur stdDeviation="0.23504" result="effect1_foregroundBlur_0_162"/>
</filter>
<filter id="filter2_f_0_162" x="3.16157" y="2.26872" width="6.40512" height="5.26567" filterUnits="userSpaceOnUse" color-interpolation-filters="sRGB">
<feFlood flood-opacity="0" result="BackgroundImageFix"/>
<feBlend mode="normal" in="SourceGraphic" in2="BackgroundImageFix" result="shape"/>
<feGaussianBlur stdDeviation="0.23504" result="effect1_foregroundBlur_0_162"/>
</filter>
<filter id="filter3_f_0_162" x="7.93077" y="9.4062" width="8.44745" height="7.79212" filterUnits="userSpaceOnUse" color-interpolation-filters="sRGB">
<feFlood flood-opacity="0" result="BackgroundImageFix"/>
<feBlend mode="normal" in="SourceGraphic" in2="BackgroundImageFix" result="shape"/>
<feGaussianBlur stdDeviation="0.23504" result="effect1_foregroundBlur_0_162"/>
</filter>
<filter id="filter4_f_0_162" x="8.47176" y="7.86289" width="7.919" height="3.80279" filterUnits="userSpaceOnUse" color-interpolation-filters="sRGB">
<feFlood flood-opacity="0" result="BackgroundImageFix"/>
<feBlend mode="normal" in="SourceGraphic" in2="BackgroundImageFix" result="shape"/>
<feGaussianBlur stdDeviation="0.23504" result="effect1_foregroundBlur_0_162"/>
</filter>
<filter id="filter5_f_0_162" x="1.40435" y="4.53303" width="5.40072" height="5.9798" filterUnits="userSpaceOnUse" color-interpolation-filters="sRGB">
<feFlood flood-opacity="0" result="BackgroundImageFix"/>
<feBlend mode="normal" in="SourceGraphic" in2="BackgroundImageFix" result="shape"/>
<feGaussianBlur stdDeviation="0.23504" result="effect1_foregroundBlur_0_162"/>
</filter>
<filter id="filter6_f_0_162" x="0" y="0" width="10.7771" height="10.1003" filterUnits="userSpaceOnUse" color-interpolation-filters="sRGB">
<feFlood flood-opacity="0" result="BackgroundImageFix"/>
<feBlend mode="normal" in="SourceGraphic" in2="BackgroundImageFix" result="shape"/>
<feGaussianBlur stdDeviation="1.65243" result="effect1_foregroundBlur_0_162"/>
</filter>
<filter id="filter7_f_0_162" x="3.48039" y="12.7806" width="6.03478" height="4.42832" filterUnits="userSpaceOnUse" color-interpolation-filters="sRGB">
<feFlood flood-opacity="0" result="BackgroundImageFix"/>
<feBlend mode="normal" in="SourceGraphic" in2="BackgroundImageFix" result="shape"/>
<feGaussianBlur stdDeviation="0.23504" result="effect1_foregroundBlur_0_162"/>
</filter>
<filter id="filter8_f_0_162" x="7.71544" y="13.2305" width="2.65906" height="3.97837" filterUnits="userSpaceOnUse" color-interpolation-filters="sRGB">
<feFlood flood-opacity="0" result="BackgroundImageFix"/>
<feBlend mode="normal" in="SourceGraphic" in2="BackgroundImageFix" result="shape"/>
<feGaussianBlur stdDeviation="0.23504" result="effect1_foregroundBlur_0_162"/>
</filter>
<radialGradient id="paint0_radial_0_162" cx="0" cy="0" r="1" gradientTransform="matrix(-0.28759 -6.89213 10.3401 -0.413591 7.18541 14.5396)" gradientUnits="userSpaceOnUse">
<stop offset="0.141612" stop-color="#1ABD4D"/>
<stop offset="0.247515" stop-color="#6EC30D"/>
<stop offset="0.311547" stop-color="#8AC502"/>
<stop offset="0.366013" stop-color="#A2C600"/>
<stop offset="0.445673" stop-color="#C8C903"/>
<stop offset="0.540305" stop-color="#EBCB03"/>
<stop offset="0.615636" stop-color="#F7CD07"/>
<stop offset="0.699345" stop-color="#FDCD04"/>
<stop offset="0.771242" stop-color="#FDCE05"/>
<stop offset="0.860566" stop-color="#FFCE0A"/>
</radialGradient>
<radialGradient id="paint1_radial_0_162" cx="0" cy="0" r="1" gradientTransform="matrix(4.88408 -1.17382e-05 -6.86477e-06 6.17555 13.6348 6.48712)" gradientUnits="userSpaceOnUse">
<stop offset="0.408458" stop-color="#FB4E5A"/>
<stop offset="1" stop-color="#FF4540"/>
</radialGradient>
<radialGradient id="paint2_radial_0_162" cx="0" cy="0" r="1" gradientTransform="matrix(-6.84295 3.71073 5.14305 9.09154 10.9675 1.84486)" gradientUnits="userSpaceOnUse">
<stop offset="0.231273" stop-color="#FF4541"/>
<stop offset="0.311547" stop-color="#FF4540"/>
<stop offset="0.457516" stop-color="#FF4640"/>
<stop offset="0.540305" stop-color="#FF473F"/>
<stop offset="0.699346" stop-color="#FF5138"/>
<stop offset="0.771242" stop-color="#FF5B33"/>
<stop offset="0.860566" stop-color="#FF6C29"/>
<stop offset="1" stop-color="#FF8C18"/>
</radialGradient>
<radialGradient id="paint3_radial_0_162" cx="0" cy="0" r="1" gradientTransform="matrix(-12.4099 -15.8607 -5.97971 4.48495 9.14664 15.8325)" gradientUnits="userSpaceOnUse">
<stop offset="0.131546" stop-color="#0CBA65"/>
<stop offset="0.209784" stop-color="#0BB86D"/>
<stop offset="0.297297" stop-color="#09B479"/>
<stop offset="0.396257" stop-color="#08AD93"/>
<stop offset="0.477124" stop-color="#0AA6A9"/>
<stop offset="0.568425" stop-color="#0D9CC6"/>
<stop offset="0.667385" stop-color="#1893DD"/>
<stop offset="0.768727" stop-color="#258BF1"/>
<stop offset="0.858506" stop-color="#3086FF"/>
</radialGradient>
<radialGradient id="paint4_radial_0_162" cx="0" cy="0" r="1" gradientTransform="matrix(-0.878219 7.41127 10.4664 1.18888 8.43855 4.04593)" gradientUnits="userSpaceOnUse">
<stop offset="0.366013" stop-color="#FF4E3A"/>
<stop offset="0.457516" stop-color="#FF8A1B"/>
<stop offset="0.540305" stop-color="#FFA312"/>
<stop offset="0.615636" stop-color="#FFB60C"/>
<stop offset="0.771242" stop-color="#FFCD0A"/>
<stop offset="0.860566" stop-color="#FECF0A"/>
<stop offset="0.915033" stop-color="#FECF08"/>
<stop offset="1" stop-color="#FDCD01"/>
</radialGradient>
<radialGradient id="paint5_radial_0_162" cx="0" cy="0" r="1" gradientTransform="matrix(-2.53851 2.74879 -7.91875 -7.01016 7.20357 3.96907)" gradientUnits="userSpaceOnUse">
<stop offset="0.315904" stop-color="#FF4C3C"/>
<stop offset="0.603818" stop-color="#FF692C"/>
<stop offset="0.726837" stop-color="#FF7825"/>
<stop offset="0.884534" stop-color="#FF8D1B"/>
<stop offset="1" stop-color="#FF9F13"/>
</radialGradient>
<radialGradient id="paint6_radial_0_162" cx="0" cy="0" r="1" gradientTransform="matrix(-6.84295 -3.71073 5.14305 -9.09153 10.9676 17.5907)" gradientUnits="userSpaceOnUse">
<stop offset="0.231273" stop-color="#0FBC5F"/>
<stop offset="0.311547" stop-color="#0FBC5F"/>
<stop offset="0.366013" stop-color="#0FBC5E"/>
<stop offset="0.457516" stop-color="#0FBC5D"/>
<stop offset="0.540305" stop-color="#12BC58"/>
<stop offset="0.699346" stop-color="#28BF3C"/>
<stop offset="0.771242" stop-color="#38C02B"/>
<stop offset="0.860566" stop-color="#52C218"/>
<stop offset="0.915033" stop-color="#67C30F"/>
<stop offset="1" stop-color="#86C504"/>
</radialGradient>
<linearGradient id="paint7_linear_0_162" x1="8.18552" y1="15.2197" x2="9.90442" y2="15.2197" gradientUnits="userSpaceOnUse">
<stop stop-color="#0FBC5C"/>
<stop offset="1" stop-color="#0CBA65"/>
</linearGradient>
</defs>
</svg>
