<svg preserveAspectRatio="none" overflow="visible" style="display: block;" width="60" height="60" viewBox="0 0 60 60" fill="none" xmlns="http://www.w3.org/2000/svg">
<g id="game-icons:wizard-staff">
<path id="Vector" d="M39.3347 2.28906C36.4624 2.29996 33.5933 2.90254 31.0071 4.12023C28.3751 5.35973 25.9549 8.12828 24.1663 11.4518C22.3775 14.7753 21.2153 18.631 20.9214 21.8522C20.044 31.4747 14.8363 40.0575 2.19716 51.4491L2.17513 53.9616C10.455 47.2789 16.3963 40.6213 20.6617 33.9848L20.6691 33.9883C19.58 37.7937 18.0179 41.3922 15.5604 44.2973C11.8725 48.4673 7.44845 52.6293 2.14618 56.7812L2.13892 57.748L5.0686 57.7555H5.12368L5.27368 57.6201C8.13364 55.6867 10.9698 53.9301 13.7808 52.7568L13.8027 52.7787L8.36099 57.7592L11.752 57.7666C17.4206 52.8816 22.8513 47.1517 26.9426 41.7119C30.8786 36.4785 33.5074 31.48 34.0545 28.0192C33.9059 27.7473 33.7554 27.4769 33.626 27.1879C31.419 22.259 33.1253 15.8882 38.3391 13.5868C42.1746 11.8934 47.111 13.2159 48.9373 17.2599C48.9549 17.2989 48.9752 17.3342 48.9924 17.3736C50.5512 20.1933 49.716 23.172 47.8972 24.6357C46.9754 25.3772 45.7361 25.7522 44.5281 25.4044C43.3199 25.0568 42.2965 24.0249 41.657 22.4602L43.682 21.6326C44.1498 22.7768 44.6977 23.1736 45.1322 23.299C45.5667 23.4239 46.0424 23.3164 46.5238 22.9289C47.4866 22.1543 48.1975 20.3614 47.0401 18.3551L47.0073 18.3L46.9815 18.2414C45.7276 15.3329 42.0643 14.3352 39.2214 15.5901C35.2296 17.3522 33.8783 22.393 35.6254 26.2946C38.0309 31.6671 44.7625 33.4638 49.9662 31.0846C57.0158 27.862 59.3564 18.9759 56.1881 12.1221C53.2893 5.85227 46.6479 2.45605 39.9099 2.2968C39.7185 2.29211 39.5264 2.28859 39.3349 2.28941L39.3347 2.28906ZM36.3171 5.42031C36.6966 5.42441 37.0628 5.46109 37.4194 5.52648C38.6315 5.74891 39.7568 6.31785 40.8216 7.07922C37.2329 6.44207 33.9867 7.61969 31.3552 9.98336C28.7255 12.3449 26.7661 15.9119 25.99 19.9113C25.4445 18.5802 25.1502 17.3962 25.2065 16.1941C25.2411 15.4507 25.4074 14.6758 25.7666 13.8249C26.8323 11.7136 28.2313 9.84684 29.894 8.3534C30.8108 7.53004 31.8147 6.82176 32.8858 6.25516C34.1668 5.64438 35.2907 5.40906 36.3172 5.4202L36.3171 5.42031ZM50.7239 12.7226C53.3704 14.2656 54.7511 17.6281 54.5837 21.0026C54.5176 22.338 54.1775 23.695 53.5402 24.9429C52.0777 27.1621 49.3765 27.9324 47.6843 27.3892L47.6735 27.3599C50.9481 26.1453 52.2649 23.5657 52.3976 20.8923C52.4121 20.5994 52.4111 20.3071 52.3941 20.0172C52.5636 18.4574 52.3458 16.643 51.7531 14.9269C51.4901 14.1657 51.1495 13.4164 50.7167 12.7332L50.7241 12.7223L50.7239 12.7226ZM34.8376 12.8764C32.3802 15.143 31.3916 17.0075 30.9411 18.8822C30.4902 20.7599 30.6144 22.7307 30.6007 25.0785C30.5843 27.8664 30.3007 31.1186 28.44 35.1201C28.4394 35.1215 28.4371 35.1222 28.4365 35.1236C25.9644 38.2587 23.1307 41.2466 20.3615 43.0192L20.3541 43.0157C27.8769 34.6315 28.3846 29.5635 28.4107 25.0637C28.4238 22.8141 28.2639 20.6582 28.8136 18.3695C28.8812 18.0884 28.9594 17.8098 29.048 17.5346H29.0515C30.0005 15.5382 30.9935 14.4809 32.0363 13.8358C32.8777 13.3155 33.7982 13.051 34.8377 12.8764H34.8376Z" fill="#D1D1D1"/>
</g>
</svg>
